<?xml version="1.0" standalone="no"?>
<!DOCTYPE svg PUBLIC "-//W3C//DTD SVG 20010904//EN"
 "http://www.w3.org/TR/2001/REC-SVG-20010904/DTD/svg10.dtd">
<svg version="1.0" xmlns="http://www.w3.org/2000/svg"
 width="2048.000000pt" height="2048.000000pt" viewBox="0 0 2048.000000 2048.000000"
 preserveAspectRatio="xMidYMid meet">

<g transform="translate(0.000000,2048.000000) scale(0.100000,-0.100000)"
fill="#000000" stroke="none">
<path d="M10030 16364 c-30 -2 -129 -8 -220 -14 -2761 -178 -5244 -1831 -6490
-4320 -349 -698 -578 -1394 -715 -2174 -14 -77 -27 -141 -29 -143 -3 -4 -724
-199 -1286 -348 -91 -24 -215 -57 -277 -74 -61 -17 -146 -40 -190 -51 -471
-126 -598 -162 -609 -171 -10 -8 -9 -24 6 -77 22 -82 81 -304 450 -1682 160
-597 299 -1116 310 -1155 10 -38 71 -266 135 -505 223 -833 526 -1965 542
-2023 12 -42 21 -57 34 -57 21 0 5 -4 484 125 198 53 383 102 410 110 28 7
280 75 560 150 281 75 543 145 582 156 40 10 81 19 90 19 11 0 38 -29 68 -72
158 -228 374 -503 566 -723 141 -162 534 -556 694 -696 800 -700 1682 -1209
2685 -1550 606 -206 1158 -319 1915 -391 173 -16 1004 -16 1180 0 316 30 514
54 715 89 47 8 110 18 140 23 392 65 1008 243 1460 422 545 216 1142 539 1610
871 129 92 311 227 351 261 20 17 69 58 109 91 348 285 634 565 982 961 200
228 457 571 640 858 442 689 744 1362 962 2142 58 205 62 224 121 499 35 166
85 465 104 620 6 50 15 128 21 174 5 46 11 112 11 145 2 103 9 119 54 134 22
7 267 74 545 148 278 75 528 141 555 149 547 146 545 146 545 169 0 13 -44
186 -125 486 -90 333 -188 701 -206 770 -11 41 -35 131 -54 200 -19 69 -43
160 -55 203 -11 42 -29 112 -41 155 -82 304 -206 769 -235 877 -19 72 -50 189
-69 260 -60 222 -125 465 -160 595 -97 363 -117 436 -150 560 -20 74 -49 182
-65 240 -15 58 -49 184 -75 280 -25 96 -64 240 -85 320 -92 346 -141 523 -146
532 -7 11 -7 11 -224 -47 -326 -87 -998 -266 -1120 -300 -69 -18 -179 -48
-245 -65 -162 -44 -296 -80 -317 -86 -12 -3 -58 43 -163 166 -495 578 -1021
1048 -1621 1448 -1146 763 -2412 1197 -3804 1302 -146 11 -757 21 -860 14z
m895 -549 c712 -60 1356 -205 2000 -448 999 -378 1882 -955 2636 -1723 194
-199 332 -355 322 -364 -7 -6 -268 -78 -343 -95 -22 -5 -38 9 -125 106 -126
139 -383 392 -540 529 -1106 968 -2456 1553 -3910 1694 -556 55 -1060 45
-1615 -30 -1764 -239 -3362 -1143 -4486 -2539 -571 -709 -1006 -1547 -1258
-2423 -51 -176 -136 -525 -136 -556 0 -16 -17 -22 -188 -67 -67 -18 -125 -29
-129 -26 -12 13 82 430 152 672 135 472 360 1023 587 1440 285 522 604 976
994 1415 127 142 484 498 619 615 1052 915 2260 1490 3626 1724 254 44 650 85
919 95 179 7 703 -4 875 -19z m-140 -560 c449 -36 724 -81 1145 -185 834 -208
1655 -600 2355 -1124 171 -128 310 -242 460 -377 145 -130 465 -451 465 -466
0 -5 -21 -15 -47 -21 -27 -6 -91 -23 -143 -37 -87 -24 -239 -65 -655 -177 -82
-22 -197 -53 -255 -68 -58 -15 -175 -46 -260 -69 -85 -24 -220 -60 -300 -81
-80 -21 -206 -55 -280 -75 -193 -52 -414 -111 -565 -151 -71 -19 -188 -50
-258 -69 l-128 -35 -147 82 c-625 349 -1317 528 -2042 528 -960 0 -1874 -323
-2640 -934 -164 -131 -498 -466 -634 -636 -114 -143 -283 -389 -363 -529 l-48
-85 -255 -68 c-140 -38 -329 -88 -420 -112 -91 -25 -259 -70 -375 -101 -115
-31 -309 -83 -430 -115 -813 -218 -1162 -311 -1177 -316 -27 -8 -23 19 32 232
357 1381 1151 2615 2260 3516 671 544 1470 968 2290 1213 459 137 898 217
1450 264 169 15 771 12 965 -4z m7289 -2050 c19 -72 58 -215 86 -320 92 -343
332 -1238 360 -1345 15 -58 47 -175 70 -260 23 -85 75 -279 115 -430 41 -151
137 -511 214 -800 78 -289 160 -595 182 -680 23 -85 66 -244 95 -353 50 -181
61 -237 50 -237 -3 0 -240 -63 -528 -140 -325 -87 -565 -157 -633 -185 -153
-61 -305 -99 -560 -140 -57 -9 -321 -80 -445 -120 -135 -44 -364 -105 -392
-105 -25 0 -2593 -687 -2618 -700 -8 -5 -65 -20 -125 -33 -254 -58 -6348
-1698 -6373 -1715 -15 -11 -72 -29 -127 -42 -55 -12 -127 -31 -160 -42 -33
-10 -94 -23 -135 -28 -41 -6 -570 -143 -1175 -306 -605 -162 -1167 -313 -1250
-334 -82 -21 -181 -51 -220 -67 -38 -16 -99 -37 -135 -47 -36 -10 -158 -46
-271 -81 -205 -64 -329 -93 -509 -120 -52 -8 -270 -61 -485 -119 -214 -57
-544 -146 -733 -196 -189 -51 -344 -91 -346 -89 -1 2 -36 128 -76 279 -126
474 -147 552 -174 655 -15 55 -70 260 -123 455 -52 195 -101 378 -108 405 -28
106 -357 1334 -430 1605 -42 157 -89 332 -105 390 -15 58 -40 150 -54 205
-118 438 -146 547 -142 554 3 5 16 11 28 13 13 3 91 24 173 46 198 54 728 196
885 237 69 19 225 61 346 94 227 62 385 104 649 171 83 22 222 59 310 83 88
24 187 51 220 59 33 9 112 31 175 51 63 19 180 51 260 71 143 35 235 59 500
131 149 40 418 112 580 155 58 15 301 81 540 145 239 64 503 134 586 155 82
21 222 59 310 84 87 25 247 68 354 96 107 29 267 71 355 95 88 23 273 73 410
110 138 37 322 86 410 110 88 23 273 73 410 110 138 36 291 77 340 91 50 13
191 51 315 84 124 33 261 70 305 81 44 12 134 37 200 55 66 18 217 58 335 90
118 31 278 74 355 94 77 21 253 68 390 105 138 37 322 86 410 110 88 23 228
61 310 83 532 142 914 244 1145 307 96 27 195 52 220 56 25 4 83 19 130 34 47
14 151 44 233 66 81 21 216 57 300 80 172 45 169 45 482 129 223 61 417 113
635 170 58 15 242 65 410 110 422 114 540 145 730 195 91 23 206 54 255 69 50
14 216 58 370 97 154 38 336 88 405 109 69 22 172 51 230 65 58 15 206 54 330
87 124 33 272 73 330 88 58 15 159 43 225 60 207 57 330 88 332 86 1 -1 18
-60 37 -131z m-7726 -445 c514 -35 935 -133 1377 -321 158 -67 337 -159 342
-175 2 -6 -26 -19 -64 -29 -37 -9 -140 -37 -228 -61 -88 -23 -297 -80 -465
-124 -168 -45 -435 -117 -595 -160 -159 -43 -411 -110 -560 -150 -148 -39
-376 -100 -505 -135 -129 -35 -338 -92 -465 -125 -280 -75 -683 -183 -1065
-285 -157 -42 -328 -88 -380 -102 -52 -13 -178 -47 -280 -74 -102 -28 -311
-84 -465 -125 -154 -41 -289 -77 -299 -81 -52 -15 180 318 398 572 139 162
338 352 531 506 534 428 1230 731 1900 828 145 21 174 24 325 36 202 16 319
17 498 5z m7268 -5012 c-15 -174 -68 -513 -117 -743 -369 -1747 -1379 -3313
-2823 -4380 -999 -737 -2189 -1211 -3427 -1365 -328 -40 -531 -52 -909 -52
-476 0 -806 27 -1245 102 -1718 294 -3250 1180 -4388 2539 -126 150 -329 420
-323 430 3 4 43 18 88 31 46 13 121 33 167 46 46 13 91 24 101 24 10 0 62 -56
127 -137 281 -351 698 -772 1030 -1038 659 -528 1380 -927 2143 -1186 343
-117 601 -184 1010 -264 155 -30 522 -76 735 -92 158 -12 893 -9 1055 5 831
70 1550 255 2315 595 123 54 391 188 465 232 30 18 98 56 150 85 97 55 147 86
350 218 117 77 165 110 344 242 125 92 140 105 367 295 106 89 583 559 655
645 30 36 79 94 110 130 79 91 188 228 276 345 97 129 353 518 445 677 93 160
300 576 373 748 244 579 408 1176 485 1770 9 75 -16 62 300 145 72 19 134 34
139 35 5 0 6 -36 2 -82z m-720 -150 c-3 -18 -13 -76 -22 -128 -148 -899 -506
-1797 -1027 -2580 -518 -779 -1194 -1439 -1987 -1940 -1352 -855 -2942 -1193
-4540 -964 -1509 215 -2950 981 -3963 2104 -230 255 -314 357 -301 370 8 8
167 52 634 177 74 20 173 46 220 58 47 13 247 67 445 120 198 53 407 109 465
124 58 16 308 83 557 150 l451 121 134 -81 c152 -92 443 -238 598 -300 326
-129 715 -231 1025 -268 50 -6 128 -15 174 -21 109 -13 628 -13 745 0 402 45
634 93 941 195 337 111 707 288 970 463 311 207 628 474 814 685 259 295 428
532 597 840 l59 108 65 18 c141 40 569 155 1175 316 88 23 297 79 464 124 167
45 356 96 420 113 64 17 154 41 201 54 149 40 606 162 626 167 10 2 29 5 42 6
20 1 22 -2 18 -31z m-3236 -836 c0 -16 -142 -248 -213 -347 -169 -238 -378
-480 -551 -637 -576 -524 -1226 -860 -1949 -1009 -260 -53 -424 -70 -729 -76
-277 -5 -421 2 -643 33 -419 57 -824 181 -1210 369 -207 101 -313 165 -293
176 9 5 144 43 299 85 156 41 327 87 379 101 52 14 142 38 200 53 58 16 242
65 410 110 168 45 377 101 465 125 88 23 374 100 635 170 261 70 513 137 560
150 72 19 360 96 785 211 55 14 147 39 205 54 99 27 713 191 920 247 245 66
369 99 540 144 102 26 186 48 188 49 1 0 2 -4 2 -8z"/>
<path d="M11459 14791 c0 -3 -2 -53 -3 -111 -2 -94 -10 -158 -21 -168 -2 -2
-32 7 -67 21 -78 31 -154 39 -219 22 -128 -34 -186 -122 -223 -340 -3 -16 -7
-39 -9 -50 -3 -11 -8 -42 -12 -70 -4 -27 -9 -61 -11 -75 -8 -55 7 -101 50
-144 54 -56 135 -76 224 -56 48 11 65 21 112 69 l56 57 -1 -60 c-2 -101 -1
-102 66 -116 33 -7 63 -10 66 -6 4 4 6 39 5 79 -3 66 19 218 62 439 8 40 19
105 26 143 6 39 15 92 21 118 5 27 9 86 9 133 0 83 0 84 -30 99 -16 9 -30 14
-30 11 0 -2 -16 0 -35 4 -19 4 -35 5 -36 1z m-145 -315 c83 -35 109 -105 79
-216 -6 -24 -9 -35 -16 -62 -21 -73 -77 -175 -129 -231 -43 -47 -51 -51 -102
-55 -52 -4 -57 -3 -86 28 -37 39 -38 63 -9 214 34 179 57 243 104 293 36 37
47 43 84 43 23 0 57 -6 75 -14z"/>
<path d="M8735 14738 c-70 -17 -68 -15 -48 -50 10 -18 20 -35 23 -38 17 -17
70 -158 70 -185 0 -8 -29 -14 -80 -18 -167 -13 -268 -91 -288 -222 -11 -67 4
-172 42 -296 14 -47 26 -93 26 -102 0 -25 32 -89 60 -120 38 -41 90 -56 153
-45 118 22 187 82 216 189 l17 62 13 -34 c45 -117 57 -127 127 -105 62 20 65
29 29 90 -28 47 -52 112 -65 171 -8 38 -22 91 -121 450 -49 177 -85 259 -114
262 -11 1 -38 -3 -60 -9z m41 -393 c14 -9 28 -24 31 -33 4 -9 9 -19 13 -22 34
-28 51 -299 24 -391 -20 -66 -40 -94 -82 -115 -44 -21 -95 -11 -121 22 -29 37
-92 256 -107 372 -7 58 12 127 46 157 47 43 139 48 196 10z"/>
<path d="M10365 14650 c-107 -12 -202 -52 -247 -105 -24 -28 -56 -98 -63 -137
-4 -18 -8 -102 -9 -187 -4 -216 18 -277 114 -318 55 -23 240 -14 305 15 54 25
118 81 141 124 36 70 59 386 33 467 -25 77 -83 126 -164 138 -16 2 -34 5 -40
6 -5 2 -37 0 -70 -3z m94 -109 c18 -13 37 -35 43 -50 11 -27 12 -272 2 -351
-9 -65 -50 -136 -89 -154 -87 -42 -202 -6 -231 71 -17 44 -17 54 2 303 7 84
42 163 86 190 46 29 140 24 187 -9z"/>
<path d="M9625 14621 c-67 -21 -127 -81 -151 -148 l-19 -53 -25 78 -25 77 -46
3 c-25 2 -57 -2 -72 -7 l-27 -10 24 -55 c21 -48 39 -114 41 -156 2 -32 16
-158 25 -220 6 -36 12 -85 15 -110 14 -130 18 -159 24 -169 5 -8 24 -9 62 -3
l54 7 -1 65 c-1 36 -3 130 -5 210 -4 145 -2 165 23 263 18 73 82 137 136 137
49 0 79 -22 102 -76 21 -48 24 -48 101 -8 29 15 31 19 26 57 -14 107 -132 160
-262 118z"/>
<path d="M12078 14321 c-51 -11 -128 -51 -128 -67 0 -13 49 -64 61 -64 3 0 17
8 30 19 46 36 83 48 134 44 91 -6 121 -70 87 -188 -20 -68 -21 -68 -93 -49
-89 24 -224 27 -289 8 -89 -26 -180 -140 -180 -225 0 -75 52 -132 149 -164
100 -33 168 -18 250 52 l42 35 -6 -28 c-3 -16 -8 -52 -11 -81 -5 -49 -4 -52
23 -66 37 -19 90 -30 96 -20 3 4 8 33 12 63 3 30 40 156 82 280 65 194 74 232
71 278 -3 32 -13 64 -25 80 -51 69 -201 114 -305 93z m86 -381 c31 -10 33 -13
23 -33 -34 -65 -124 -167 -146 -167 -5 0 -11 -5 -13 -12 -3 -7 -26 -13 -54
-14 -58 -3 -122 28 -130 63 -12 48 27 123 83 160 48 31 147 33 237 3z"/>
<path d="M12890 14323 c-37 -10 -65 -80 -48 -119 11 -25 58 -54 86 -54 22 0
82 62 82 85 0 60 -62 105 -120 88z"/>
<path d="M7835 14169 c-50 -17 -105 -44 -105 -51 0 -5 -5 -8 -12 -8 -31 0
-110 -120 -124 -188 l-7 -33 48 3 48 3 13 53 c8 29 22 64 31 77 21 28 76 58
108 58 37 0 84 -44 115 -107 34 -68 35 -67 -45 -111 -104 -56 -186 -132 -216
-200 -24 -53 -26 -136 -5 -193 40 -111 103 -142 219 -107 113 34 187 124 187
229 l0 51 20 -25 c11 -14 20 -29 20 -33 0 -5 15 -25 34 -45 l35 -36 53 24 c29
14 56 29 60 34 3 5 -11 30 -32 54 -44 49 -59 79 -180 353 -55 123 -87 172
-130 194 -33 17 -90 18 -135 4z m177 -385 c12 -64 7 -196 -9 -227 -40 -80
-125 -110 -176 -63 -46 43 -54 139 -15 198 37 55 156 143 183 135 5 -2 13 -21
17 -43z"/>
<path d="M12750 14057 c0 -54 -26 -128 -101 -284 -39 -82 -82 -171 -95 -200
-28 -58 -50 -152 -42 -174 3 -8 27 -25 52 -38 58 -28 72 -20 81 52 5 35 39
118 102 252 87 184 133 304 133 347 0 12 -21 28 -60 48 -33 16 -62 30 -65 30
-3 0 -5 -15 -5 -33z"/>
<path d="M13215 13851 c-3 -6 -13 -34 -21 -62 -16 -53 -26 -72 -90 -178 -22
-35 -43 -71 -49 -80 -5 -9 -19 -30 -31 -46 -12 -17 -23 -34 -25 -40 -4 -10
-84 -135 -120 -187 -11 -15 -19 -32 -19 -37 0 -15 55 -50 87 -57 26 -5 32 1
83 78 30 46 60 89 67 96 7 8 26 33 42 56 39 56 161 169 207 191 71 34 141 22
182 -30 31 -39 21 -80 -48 -192 -33 -54 -66 -107 -73 -118 -7 -11 -21 -33 -32
-50 -11 -16 -25 -39 -31 -50 -51 -95 -66 -127 -70 -157 -6 -32 -3 -36 42 -65
26 -17 52 -29 58 -27 6 2 21 33 33 68 13 36 74 146 138 247 63 101 122 204
129 230 27 91 -19 175 -126 224 -79 37 -161 31 -230 -17 -35 -24 -39 -23 -23
10 8 15 19 48 26 74 14 51 6 71 -36 89 -11 5 -30 16 -42 24 -14 11 -23 13 -28
6z"/>
<path d="M7005 13747 c-126 -49 -192 -153 -169 -267 12 -56 7 -69 -13 -40 -23
33 -83 58 -133 56 -59 -3 -116 -31 -167 -84 -52 -53 -72 -126 -55 -200 11 -50
7 -68 -10 -38 -5 10 -22 28 -36 39 -14 12 -32 30 -41 40 -17 18 -61 24 -61 7
0 -5 -7 -10 -15 -10 -8 0 -15 -4 -15 -8 0 -5 -11 -15 -25 -22 -14 -7 -25 -18
-25 -25 0 -6 22 -28 49 -48 27 -21 59 -53 72 -72 13 -19 27 -35 32 -35 4 0 7
-7 7 -15 0 -8 3 -15 8 -15 4 0 20 -21 37 -48 16 -26 32 -49 35 -52 3 -3 42
-57 85 -120 44 -63 91 -128 106 -144 l27 -29 33 24 c39 27 59 45 59 53 0 3
-31 52 -68 108 -135 204 -189 335 -179 441 4 46 11 65 32 87 57 59 124 47 182
-33 20 -29 40 -54 44 -57 3 -3 53 -72 110 -155 57 -82 115 -162 129 -178 l25
-27 42 27 c24 15 45 33 48 41 2 7 -17 46 -45 86 -163 243 -230 421 -192 516
23 56 76 89 125 76 29 -7 55 -29 92 -81 17 -22 32 -42 36 -45 3 -3 43 -59 88
-125 77 -111 171 -215 194 -215 17 0 97 54 102 70 4 9 -3 22 -17 33 -53 42
-85 74 -113 112 -17 22 -32 42 -36 45 -3 3 -44 61 -91 130 -47 69 -97 137
-110 151 -48 55 -117 72 -183 46z"/>
<path d="M5913 12830 c-92 -21 -182 -130 -183 -220 0 -19 7 -57 15 -84 20 -64
19 -74 -3 -50 -16 17 -118 109 -192 174 -33 30 -90 65 -116 74 -17 5 -31 -3
-63 -36 -22 -24 -41 -48 -41 -55 0 -7 15 -19 34 -27 56 -23 99 -56 218 -168
62 -58 142 -132 178 -164 35 -32 98 -91 140 -130 153 -144 175 -164 191 -164
18 0 79 63 79 82 0 6 -24 34 -52 62 -54 53 -131 136 -181 194 -40 47 -101 151
-116 199 -29 90 36 194 111 179 42 -8 78 -36 219 -168 126 -119 212 -186 247
-195 19 -4 33 4 68 38 24 24 44 47 44 51 0 4 -17 15 -37 24 -52 24 -97 58
-173 129 -160 149 -253 231 -274 242 -32 17 -75 22 -113 13z"/>
<path d="M5264 12075 c-57 -25 -123 -115 -150 -205 -14 -46 -13 -104 2 -152
17 -53 33 -59 73 -29 l24 18 -17 51 c-24 70 -14 130 27 172 28 29 36 32 77 28
45 -5 134 -51 144 -76 3 -7 -7 -38 -23 -70 -70 -140 -81 -176 -77 -265 4 -84
26 -132 87 -189 67 -62 156 -71 214 -20 29 24 79 92 93 125 20 47 8 186 -18
207 -11 8 -20 40 -12 40 4 0 16 -6 27 -14 11 -8 43 -21 72 -29 l51 -15 32 50
c30 49 33 78 10 78 -15 0 -163 68 -170 78 -8 12 -291 197 -329 215 -40 20 -94
21 -137 2z m326 -335 c90 -122 100 -199 34 -265 -40 -40 -63 -43 -111 -14
-101 63 -111 174 -27 316 16 28 29 40 39 37 8 -3 37 -37 65 -74z"/>
<path d="M4747 11324 c-140 -38 -227 -118 -270 -249 -47 -141 -3 -302 111
-406 63 -58 130 -92 218 -110 153 -31 342 60 413 200 60 117 60 224 -1 349
-85 175 -286 267 -471 216z m213 -89 c210 -74 293 -339 153 -491 -43 -46 -83
-70 -147 -89 -188 -55 -392 66 -426 253 -28 157 73 309 230 342 48 10 139 3
190 -15z"/>
<path d="M4720 11187 c-78 -20 -141 -147 -126 -252 9 -59 65 -116 154 -156 37
-16 92 -42 122 -57 63 -31 134 -35 173 -9 60 39 101 178 78 264 -11 42 -77
113 -105 113 -13 0 -36 -48 -36 -75 0 -7 17 -30 39 -52 44 -44 47 -70 11 -128
-27 -43 -54 -48 -115 -20 -16 7 -57 25 -90 40 -96 42 -106 48 -131 78 -16 19
-24 41 -24 67 0 51 41 85 103 85 39 0 42 2 50 38 6 25 5 42 -2 51 -15 18 -59
24 -101 13z"/>
<path d="M17560 12844 c-425 -115 -542 -146 -585 -155 -22 -4 -93 -26 -159
-49 -65 -22 -173 -54 -240 -69 -189 -45 -414 -107 -568 -157 -176 -58 -439
-126 -498 -129 -41 -2 -132 -26 -685 -175 -104 -28 -233 -62 -285 -76 -84 -22
-332 -88 -595 -159 -49 -14 -166 -45 -260 -70 -400 -108 -546 -148 -635 -175
-52 -16 -153 -43 -225 -59 -71 -17 -186 -46 -255 -65 -69 -18 -213 -57 -320
-86 -107 -28 -278 -74 -380 -102 -102 -27 -446 -119 -765 -205 -527 -140 -880
-235 -1225 -328 -69 -18 -192 -51 -275 -73 -82 -22 -186 -50 -230 -62 -414
-111 -673 -180 -875 -234 -91 -24 -487 -130 -880 -236 -393 -106 -781 -210
-862 -231 -82 -21 -223 -60 -315 -85 -93 -26 -211 -57 -263 -69 -52 -12 -131
-34 -175 -48 -44 -14 -143 -42 -220 -61 -77 -19 -284 -74 -460 -121 -176 -47
-363 -97 -415 -111 -52 -13 -126 -33 -165 -44 -38 -11 -198 -54 -355 -96 -367
-97 -365 -97 -561 -150 -91 -24 -176 -44 -190 -44 -13 0 -89 -21 -169 -46
-194 -61 -386 -114 -435 -119 -22 -2 -80 -18 -130 -35 -94 -32 -267 -80 -565
-156 -96 -25 -256 -67 -355 -94 -99 -27 -310 -84 -469 -126 -158 -43 -290 -83
-293 -90 -4 -10 73 -303 314 -1199 41 -154 90 -336 108 -405 51 -193 121 -453
155 -580 18 -63 46 -171 65 -240 18 -69 44 -168 58 -220 15 -52 33 -120 41
-150 8 -30 49 -183 91 -340 42 -157 88 -328 101 -380 14 -52 34 -124 44 -160
10 -36 24 -84 30 -107 6 -25 17 -43 25 -43 7 0 103 24 212 54 109 30 295 80
413 111 118 32 271 73 339 91 69 19 132 34 140 34 25 0 329 68 406 91 39 12
91 32 117 45 26 12 89 36 140 53 86 27 130 36 215 45 18 2 69 15 115 29 168
53 272 82 898 247 89 24 276 74 915 246 55 14 156 41 225 60 69 18 235 63 370
99 135 37 287 76 339 86 52 11 99 23 105 28 6 5 49 19 96 31 179 47 306 81
655 175 198 53 383 102 410 110 28 7 289 77 580 155 292 78 544 146 560 150
17 4 201 54 410 110 209 56 418 112 465 125 47 12 137 36 200 53 128 34 728
195 885 238 55 14 147 39 205 54 58 16 267 72 465 125 198 53 383 102 410 110
28 7 280 75 560 150 649 173 646 173 735 196 41 11 134 37 205 59 72 21 166
47 210 58 329 83 493 126 1390 368 55 14 147 39 205 54 58 16 231 62 385 103
154 42 332 89 395 106 231 62 336 89 398 100 79 15 282 83 328 110 19 11 65
25 102 31 129 22 359 79 1047 262 415 110 389 99 382 152 -3 23 -24 106 -45
186 -53 195 -197 730 -232 860 -15 58 -40 150 -54 205 -96 355 -222 826 -246
915 -15 58 -40 150 -54 205 -91 338 -222 825 -246 915 -138 521 -131 500 -157
499 -10 0 -142 -34 -293 -75z m678 -1884 c258 -965 469 -1756 467 -1758 -1 -2
-63 -19 -136 -38 -74 -20 -145 -42 -159 -49 -14 -7 -100 -30 -190 -50 -90 -20
-211 -52 -269 -71 -58 -18 -146 -42 -196 -53 -49 -11 -199 -49 -332 -84 -132
-36 -285 -75 -340 -87 -54 -12 -106 -25 -115 -31 -18 -9 -177 -54 -463 -129
-88 -23 -214 -57 -280 -75 -66 -18 -183 -49 -260 -70 -77 -20 -203 -54 -280
-75 -145 -39 -438 -118 -655 -175 -69 -18 -219 -59 -335 -90 -236 -64 -363
-95 -480 -120 -44 -10 -98 -25 -120 -35 -22 -10 -101 -34 -175 -53 -74 -20
-331 -88 -570 -152 -239 -65 -493 -132 -563 -151 -70 -19 -167 -45 -215 -58
-48 -13 -159 -43 -247 -66 -88 -23 -214 -57 -280 -75 -66 -18 -192 -52 -280
-75 -88 -24 -214 -57 -280 -75 -66 -18 -217 -58 -335 -90 -118 -31 -287 -77
-375 -100 -88 -24 -248 -67 -355 -95 -107 -29 -292 -79 -410 -110 -118 -32
-278 -75 -355 -95 -77 -21 -228 -61 -335 -90 -261 -70 -439 -118 -1125 -302
-673 -180 -736 -196 -950 -252 -88 -23 -214 -57 -280 -76 -66 -19 -187 -52
-270 -74 -82 -22 -312 -83 -510 -136 -198 -53 -394 -106 -435 -116 -41 -11
-190 -51 -330 -89 -140 -38 -334 -90 -430 -115 -96 -26 -265 -71 -375 -101
-110 -31 -258 -71 -330 -89 -230 -60 -468 -124 -560 -151 -49 -15 -146 -41
-215 -59 -262 -68 -591 -154 -755 -199 -331 -89 -398 -107 -400 -104 -2 3 -68
246 -114 418 -17 63 -45 167 -62 230 -17 63 -45 171 -64 240 -18 69 -85 321
-150 560 -64 239 -131 491 -150 560 -18 69 -52 195 -75 280 -23 85 -57 211
-75 280 -85 319 -116 435 -150 560 -27 98 -100 374 -105 396 0 2 268 77 485
135 66 17 185 49 265 70 145 39 266 70 435 111 50 11 113 30 140 41 28 10 73
23 100 27 28 5 91 23 140 40 50 17 124 38 165 46 41 9 140 36 220 61 146 46
176 54 350 93 52 12 212 53 355 92 143 38 312 83 375 100 63 17 162 43 220 59
58 16 173 46 255 68 215 57 662 176 785 210 58 16 150 41 205 56 55 14 141 38
190 52 50 13 167 44 260 69 164 42 266 69 500 132 98 27 389 105 595 160 107
29 339 91 605 162 127 33 277 74 335 90 58 16 159 43 225 60 66 17 194 52 285
77 91 25 197 53 235 63 39 10 165 44 280 75 116 31 251 67 300 80 50 13 151
40 225 60 74 20 203 55 285 76 83 22 164 44 180 49 17 6 134 37 260 71 311 83
449 119 655 174 96 26 247 67 335 90 88 23 214 57 280 75 66 18 167 45 225 60
135 36 345 92 635 171 127 34 253 65 281 70 29 4 110 25 180 47 158 49 190 58
429 122 105 27 276 73 380 101 105 28 246 66 315 84 69 19 211 57 315 85 105
28 240 64 300 80 61 16 171 46 245 66 360 97 434 116 550 145 69 17 199 53
290 80 91 27 196 56 233 64 38 9 137 37 220 64 84 27 226 63 317 80 91 18 192
43 225 56 33 13 141 45 240 70 99 25 239 61 310 79 72 19 133 32 136 28 4 -4
218 -797 477 -1762z"/>
<path d="M17209 12150 c-46 -8 -81 -23 -107 -47 -7 -7 -17 -13 -22 -13 -4 0
-18 -19 -29 -43 -29 -60 -28 -140 3 -200 l23 -47 -39 -12 c-40 -12 -40 -12
-33 -52 3 -23 10 -45 15 -50 9 -9 95 11 360 82 l105 29 -1 36 c-2 68 -10 69
-151 32 -120 -32 -128 -32 -149 -17 -13 10 -30 34 -39 55 -13 33 -13 41 1 76
26 66 100 89 162 51 44 -27 55 -25 85 11 32 39 24 60 -33 89 -48 25 -91 30
-151 20z"/>
<path d="M17248 11637 c-106 -29 -148 -45 -148 -55 0 -15 362 -1382 401 -1514
11 -38 24 -68 29 -68 5 0 74 17 153 39 134 36 187 55 187 67 0 5 -21 86 -85
319 -24 88 -64 239 -90 335 -48 180 -163 609 -217 808 -36 134 -17 128 -230
69z"/>
<path d="M16267 10818 c-285 -25 -502 -167 -631 -412 -20 -38 -36 -73 -36 -78
0 -9 260 -138 279 -138 6 0 20 19 32 43 41 80 80 126 144 173 101 72 149 86
288 85 117 0 119 0 200 -40 48 -23 103 -59 133 -88 53 -51 120 -158 130 -210
6 -29 4 -31 -42 -46 -48 -16 -958 -260 -1084 -292 -36 -8 -74 -20 -85 -25 -11
-5 -53 -18 -93 -29 l-73 -20 -37 77 c-61 123 -69 136 -132 198 -82 81 -216
133 -365 141 -86 4 -113 1 -192 -20 -244 -67 -388 -196 -443 -397 -11 -39 -14
-187 -7 -285 2 -28 -1 -30 -43 -39 -40 -8 -168 -42 -304 -81 -49 -14 -76 -8
-76 17 0 32 -101 228 -140 272 -129 145 -248 210 -428 232 -61 8 -227 8 -277
1 -149 -23 -261 -49 -279 -67 -10 -10 18 -147 45 -217 11 -28 28 -29 131 -2
168 42 326 29 422 -36 20 -14 40 -25 44 -25 11 0 84 -78 109 -115 22 -34 54
-140 47 -158 -2 -7 -205 -66 -450 -132 -245 -65 -447 -122 -449 -125 -5 -9 51
-223 65 -250 14 -27 40 -25 169 10 60 16 144 39 188 50 43 12 238 64 433 117
421 113 456 122 758 202 231 62 234 62 260 44 15 -10 56 -32 91 -49 61 -30 71
-32 190 -33 98 -1 140 3 191 18 89 26 131 43 163 64 14 9 31 17 37 17 16 0
158 138 206 201 l43 56 143 37 c79 20 163 43 188 51 25 7 117 32 205 55 88 23
257 69 375 100 118 32 303 82 410 110 447 119 496 133 509 146 12 11 9 32 -23
151 -20 76 -48 162 -62 191 -13 29 -24 57 -24 62 0 6 -4 10 -10 10 -5 0 -10 5
-10 11 0 24 -112 178 -172 238 -137 136 -297 211 -482 226 -39 4 -75 7 -81 9
-5 1 -50 -2 -98 -6z m-1375 -904 c59 -20 137 -97 175 -172 24 -49 28 -69 28
-137 -1 -67 -5 -89 -28 -136 -16 -31 -40 -68 -55 -81 -60 -57 -207 -75 -285
-36 -125 62 -198 248 -152 387 26 80 100 150 195 184 29 10 77 7 122 -9z"/>
<path d="M11370 9440 c-36 -10 -103 -28 -148 -40 -99 -27 -96 2 -28 -250 26
-96 60 -224 76 -284 54 -201 28 -235 -220 -296 -69 -17 -156 -40 -195 -51
-136 -38 -246 -69 -250 -69 -10 0 -25 42 -50 135 -14 55 -51 192 -81 305 -30
113 -59 222 -65 243 -6 23 -16 37 -26 37 -37 0 -295 -75 -300 -87 -3 -7 27
-133 66 -280 89 -338 98 -381 106 -544 10 -208 -86 -395 -262 -510 -84 -55
-214 -107 -287 -116 -234 -27 -421 33 -588 191 -27 24 -48 49 -48 55 0 6 -3
11 -7 11 -7 0 -16 13 -64 97 -31 54 -85 193 -107 278 -127 471 -127 470 -147
467 -11 -1 -82 -19 -159 -39 l-138 -36 6 -37 c8 -54 111 -436 153 -570 109
-348 325 -601 601 -703 118 -44 203 -57 363 -57 211 0 338 27 504 108 122 60
196 114 292 216 66 70 91 106 137 199 52 103 58 122 67 212 6 55 14 103 17
106 7 7 59 22 197 59 673 179 691 185 782 276 59 58 71 81 87 169 15 75 10
100 -84 450 -40 149 -77 288 -82 310 -10 43 -24 65 -42 64 -6 0 -40 -9 -76
-19z"/>
<path d="M9365 9296 c-66 -18 -128 -35 -137 -39 -15 -5 -14 -16 12 -113 16
-58 31 -109 34 -112 6 -5 90 15 204 50 49 15 62 23 62 39 0 17 -48 201 -53
205 -1 1 -56 -13 -122 -30z"/>
<path d="M7520 8408 c-80 -21 -148 -42 -153 -47 -4 -4 27 -135 68 -292 168
-626 167 -621 167 -694 1 -38 -1 -77 -4 -85 -31 -94 -118 -177 -212 -201 -28
-7 -46 -17 -46 -26 0 -31 42 -179 54 -191 17 -17 105 5 213 54 139 63 223 137
277 248 67 135 73 284 18 441 -11 33 -41 139 -67 235 -26 96 -62 231 -80 300
-19 69 -44 162 -56 208 -11 45 -24 84 -28 86 -3 2 -71 -14 -151 -36z"/>
<path d="M11312 8160 c-57 -15 -106 -30 -108 -33 -6 -5 43 -197 55 -215 7 -12
244 47 263 66 11 11 5 43 -28 160 -15 49 -17 52 -47 51 -18 0 -78 -13 -135
-29z"/>
<path d="M6130 8024 c-103 -14 -209 -41 -232 -58 -15 -11 -14 -20 14 -122 16
-60 34 -113 39 -119 6 -6 48 1 117 18 187 47 311 36 431 -41 79 -50 129 -104
162 -177 31 -70 36 -107 17 -122 -7 -6 -208 -62 -447 -126 -238 -64 -436 -118
-439 -121 -5 -5 13 -78 54 -223 11 -39 20 -53 34 -53 9 0 161 39 336 86 322
86 453 121 709 189 77 20 146 42 153 47 19 16 15 47 -22 180 -108 396 -260
575 -540 635 -90 20 -276 23 -386 7z"/>
<path d="M5280 7808 c-19 -5 -85 -23 -146 -40 l-111 -30 8 -36 c4 -21 40 -156
79 -302 76 -281 81 -323 44 -373 -11 -14 -37 -35 -59 -46 -41 -21 -200 -66
-270 -77 -22 -3 -78 -18 -125 -33 -119 -39 -190 -55 -200 -45 -4 5 -24 72 -45
149 -20 77 -49 187 -65 245 -16 58 -41 152 -56 208 -15 57 -33 106 -40 109
-11 4 -301 -71 -311 -81 -2 -2 28 -123 67 -269 86 -323 111 -458 111 -596 0
-88 -4 -114 -27 -174 -34 -90 -59 -132 -112 -195 -41 -48 -178 -152 -201 -152
-6 0 -19 -4 -29 -10 -171 -95 -411 -92 -597 7 -107 57 -221 160 -260 235 -90
170 -116 242 -201 567 -33 126 -65 226 -72 228 -14 6 -291 -64 -305 -77 -14
-12 149 -606 200 -730 117 -284 344 -510 593 -589 384 -122 844 -12 1111 266
137 142 203 282 225 478 7 60 8 61 36 67 13 3 75 19 138 36 63 17 225 61 360
97 135 36 261 72 280 81 133 58 207 138 234 254 20 85 24 65 -110 558 -41 150
-74 275 -74 277 0 7 -31 4 -70 -7z"/>
<path d="M3240 7656 c-110 -31 -115 -34 -113 -58 3 -51 46 -190 59 -195 15 -6
244 53 257 66 4 4 -4 56 -19 114 -31 125 -16 120 -184 73z"/>
<path d="M5475 6598 c-60 -16 -114 -33 -118 -37 -10 -10 39 -191 56 -208 9
-10 39 -5 137 20 l125 32 -1 40 c0 22 -10 73 -23 113 -26 85 -18 84 -176 40z"/>
<path d="M5090 6494 c-205 -55 -210 -56 -210 -73 1 -26 49 -184 60 -195 19
-19 256 43 267 70 3 9 -1 41 -10 72 -8 32 -20 76 -27 100 -6 23 -14 42 -18 41
-4 0 -32 -7 -62 -15z"/>
<path d="M15513 6873 c-31 -6 -87 -65 -113 -119 -43 -88 -30 -185 36 -264 14
-16 24 -30 22 -30 -1 0 -25 7 -52 15 -27 8 -64 15 -82 15 -30 0 -36 -5 -60
-51 -28 -57 -26 -79 9 -79 27 0 119 -25 162 -45 17 -7 73 -34 126 -58 52 -25
140 -66 195 -92 54 -25 107 -50 116 -55 10 -6 24 -10 33 -10 19 0 66 92 56
109 -4 6 -61 39 -126 73 -250 127 -368 235 -369 338 -1 84 49 127 131 115 23
-3 44 -2 47 3 3 5 8 34 12 64 6 51 5 54 -20 66 -26 12 -78 14 -123 5z"/>
<path d="M15071 6028 c-49 -14 -78 -35 -111 -85 -39 -57 -65 -115 -80 -181
-18 -79 9 -178 68 -243 46 -51 199 -161 304 -218 119 -66 213 -15 299 162 34
70 39 90 39 148 0 37 -5 80 -10 96 -13 34 -72 123 -82 123 -8 0 -58 -101 -58
-117 0 -6 7 -16 15 -23 20 -17 46 -72 50 -107 5 -40 -21 -88 -68 -128 -49 -42
-101 -47 -153 -14 -40 24 -41 34 -18 159 21 122 35 216 41 288 6 76 -4 91 -80
120 -66 26 -113 32 -156 20z m91 -150 l40 -12 -6 -50 c-3 -28 -10 -78 -15
-111 -5 -33 -12 -80 -16 -105 -11 -74 -11 -74 -47 -49 -128 89 -170 160 -146
247 11 40 79 92 121 92 16 0 48 -5 69 -12z"/>
<path d="M14510 5297 c-35 -9 -93 -47 -118 -77 -25 -31 -54 -94 -58 -129 -5
-39 12 -128 29 -148 5 -7 6 -13 1 -13 -5 0 -54 43 -109 95 -101 96 -205 175
-232 175 -16 0 -93 -79 -93 -96 0 -6 22 -21 49 -33 65 -31 39 -7 604 -544 100
-95 99 -94 147 -51 22 20 40 42 40 49 0 6 -26 36 -58 66 -31 30 -82 83 -112
118 -30 35 -64 74 -75 87 -29 32 -85 128 -101 171 -18 52 -17 110 3 144 17 28
67 59 95 59 30 -1 83 -42 210 -162 150 -142 214 -194 259 -210 29 -10 34 -8
71 30 49 48 46 62 -19 96 -55 28 -54 28 -237 201 -75 71 -150 138 -167 148
-41 26 -88 35 -129 24z"/>
<path d="M7114 4783 c-24 -79 -59 -151 -110 -226 -32 -49 -66 -99 -74 -112 -8
-13 -60 -89 -115 -170 -55 -80 -104 -154 -110 -163 -5 -9 -22 -33 -37 -53 -16
-20 -28 -40 -28 -44 0 -3 -12 -22 -27 -42 l-27 -36 39 -33 c22 -19 49 -34 60
-34 14 0 44 35 105 126 47 70 91 129 98 131 7 3 40 -13 75 -35 106 -68 160
-87 257 -87 67 0 95 5 133 22 65 30 161 125 204 201 56 101 48 198 -24 278
-31 33 -109 97 -133 107 -8 4 -37 23 -65 42 -27 20 -58 41 -69 48 -10 7 -35
23 -55 37 -87 61 -91 63 -97 43z m189 -209 c100 -68 143 -113 158 -165 21 -70
-3 -119 -112 -230 -113 -115 -186 -118 -346 -13 -29 19 -55 38 -58 43 -3 5 41
77 97 161 57 83 118 176 136 206 18 30 35 54 38 54 3 0 42 -25 87 -56z"/>
<path d="M13807 4643 c-56 -15 -141 -87 -163 -139 -16 -38 -20 -95 -10 -154
l8 -45 -43 41 c-81 76 -86 77 -134 44 -70 -48 -71 -53 -23 -91 61 -46 76 -63
158 -174 41 -55 77 -102 80 -105 3 -3 51 -66 105 -140 55 -74 104 -140 110
-146 5 -6 17 -22 25 -34 8 -12 20 -28 25 -34 6 -6 26 -32 45 -58 18 -27 40
-48 49 -48 20 0 91 50 91 64 0 14 -49 93 -71 116 -22 23 -79 103 -79 111 0 5
30 24 68 43 79 42 114 73 153 134 25 40 29 56 29 120 0 62 -5 83 -31 135 -25
50 -136 217 -158 237 -4 3 -23 26 -44 52 -55 68 -114 91 -190 71z m92 -172
c25 -26 51 -54 56 -62 6 -8 36 -48 68 -90 122 -163 133 -269 36 -341 -64 -48
-138 -37 -197 29 -36 41 -112 162 -112 180 0 6 -9 30 -19 54 -23 51 -32 150
-18 194 18 56 54 83 111 84 22 1 40 -11 75 -48z"/>
<path d="M7886 4278 c-3 -13 -7 -43 -11 -66 -6 -44 -29 -106 -91 -240 -19 -41
-34 -75 -34 -77 0 -2 -20 -46 -45 -99 -25 -53 -45 -99 -45 -102 0 -2 -18 -43
-40 -90 -22 -47 -40 -87 -40 -89 0 -2 -14 -34 -31 -70 -17 -37 -28 -73 -25
-81 6 -17 65 -44 94 -44 14 0 31 26 66 98 97 199 184 322 266 377 50 33 60 36
104 31 50 -6 83 -26 96 -60 10 -27 -4 -93 -33 -157 -48 -106 -70 -155 -89
-199 -11 -25 -26 -58 -33 -75 -16 -34 -34 -102 -40 -146 -3 -27 1 -31 52 -54
64 -30 83 -23 83 31 0 42 20 102 72 212 22 48 45 101 52 117 8 17 27 62 45
101 50 113 42 201 -24 256 -66 55 -153 75 -231 53 -44 -13 -60 -22 -111 -65
-17 -14 -30 -13 -15 2 7 7 12 18 12 25 0 7 11 36 24 65 66 143 89 206 93 259
l6 57 -51 26 c-63 32 -70 32 -76 4z"/>
<path d="M12958 4100 c-125 -52 -218 -165 -218 -267 0 -17 6 -23 23 -23 53 0
66 11 73 56 9 59 49 119 95 139 57 26 95 8 149 -70 47 -70 46 -81 -18 -123
-196 -128 -257 -240 -211 -387 11 -36 32 -80 48 -97 83 -93 310 -2 346 139 8
29 12 69 10 90 -4 43 -10 46 59 -40 38 -47 49 -51 100 -27 73 33 75 43 22 97
-25 27 -46 53 -46 60 0 6 -3 13 -7 15 -5 2 -22 30 -39 63 -31 61 -138 264
-158 300 -46 84 -135 113 -228 75z m208 -384 c26 -100 21 -191 -12 -242 -52
-80 -145 -88 -180 -16 -26 55 -29 113 -9 156 31 66 136 157 174 153 9 -1 20
-23 27 -51z"/>
<path d="M12355 3813 c-45 -6 -127 -47 -157 -79 -27 -29 -58 -117 -58 -163 0
-21 -8 -13 -36 39 -20 36 -41 68 -48 73 -15 10 -75 -1 -108 -21 -33 -19 -34
-22 -8 -50 11 -12 20 -24 20 -28 0 -4 7 -15 16 -25 15 -16 55 -126 130 -349
19 -58 39 -114 44 -125 5 -11 14 -39 21 -62 7 -23 18 -44 25 -47 19 -7 105 24
111 41 3 8 -1 30 -10 48 -8 18 -32 97 -52 176 -58 232 -51 366 25 434 16 14
36 20 72 20 43 0 53 -4 67 -25 32 -49 50 -61 72 -49 67 36 83 73 51 121 -38
58 -97 82 -177 71z"/>
<path d="M9625 3716 c10 -53 12 -151 5 -196 l-5 -35 -69 -2 c-105 -2 -136 -10
-138 -36 -4 -58 -2 -62 17 -60 57 8 150 11 162 6 15 -6 15 -25 -2 -168 -3 -22
-7 -60 -10 -85 -2 -25 -7 -67 -10 -95 -23 -193 -21 -269 5 -301 8 -9 32 -14
66 -14 l53 0 -2 103 c-2 86 8 209 28 352 2 17 7 59 10 95 8 91 11 94 87 91 94
-4 102 -4 116 -2 7 0 12 15 12 35 0 36 -2 37 -129 52 -25 3 -48 8 -51 11 -3 2
-3 51 -2 108 6 167 4 170 -102 178 l-48 4 7 -41z"/>
<path d="M8785 3607 c-81 -32 -128 -73 -163 -142 -21 -43 -50 -131 -59 -180
-3 -16 -12 -50 -20 -74 -25 -74 -26 -159 -2 -209 29 -60 72 -89 170 -113 149
-37 267 -13 344 72 46 51 66 96 100 224 60 231 61 257 9 335 -25 37 -87 73
-149 86 -55 12 -200 12 -230 1z m201 -87 c55 -23 84 -66 84 -122 0 -24 -4 -48
-9 -53 -5 -6 -12 -23 -15 -40 -3 -16 -12 -54 -20 -82 -8 -29 -11 -53 -8 -53 3
0 1 -5 -6 -12 -7 -7 -12 -18 -12 -26 0 -26 -43 -106 -76 -141 -30 -32 -39 -36
-90 -38 -101 -2 -179 59 -178 140 1 48 65 279 95 342 25 53 56 83 106 100 41
15 66 12 129 -15z"/>
<path d="M11364 3532 c-49 -13 -101 -32 -115 -43 -15 -10 -31 -19 -35 -19 -20
0 -84 -88 -99 -137 -19 -58 -17 -166 3 -253 6 -25 16 -74 22 -110 25 -137 61
-191 140 -210 57 -14 134 3 205 44 36 21 50 39 76 93 28 58 33 64 40 46 4 -12
7 -70 5 -130 -1 -87 -6 -116 -23 -148 -27 -52 -61 -83 -104 -95 -51 -15 -64
-13 -98 16 l-31 26 -55 -27 c-59 -29 -61 -32 -42 -55 24 -29 58 -40 125 -40
103 0 165 22 230 83 62 59 84 97 107 186 17 65 19 211 5 280 -5 20 -13 68 -20
106 -38 227 -56 302 -88 346 -46 66 -116 77 -248 41z m101 -102 c58 -36 85
-133 78 -277 -8 -190 -76 -305 -172 -289 -44 6 -88 55 -97 106 -5 34 -11 63
-33 178 -6 30 -11 83 -11 119 0 115 59 182 159 183 27 0 56 -8 76 -20z"/>
<path d="M10392 3429 c-118 -30 -184 -92 -218 -204 -17 -60 -13 -355 6 -420 7
-22 29 -56 49 -75 49 -47 130 -62 240 -45 101 17 141 35 200 90 78 73 86 104
85 330 -1 170 -3 195 -22 235 -26 58 -49 78 -108 96 -63 19 -143 16 -232 -7z
m118 -70 c49 -11 87 -40 102 -79 14 -36 18 -322 5 -373 -26 -106 -84 -153
-178 -144 -125 11 -150 63 -146 301 2 142 4 154 29 206 32 65 63 87 138 99 3
0 25 -4 50 -10z"/>
</g>
</svg>
